# xmcd
#
# Track frame offsets:
#	150
#	12775
#	23261
#	37051
#	48269
#	59158
#	68728
#	79448
#	89089
#	99936
#	110723
#	123303
#	132676
#	142707
#	154183
#	165434
#	175049
#	184808
#	193871
#	203110
#	215306
#	224908
#	235516
#	244614
#	254945
#	265226
#	274569
#	284019
#	293539
#	303327
#	313962
#	324564
#	333707
#
# Disc length: 4588 seconds
#
# Revision: 1
# Processed by: cddbd v1.5.1PL2 Copyright (c) Steve Scherf et al.
# Submitted via: audiograbber 1.83.01
#
DISCID=fa11ea21
DTITLE=Chet Atkins - Sideman
DYEAR=1900
DGENRE=
TTITLE0=(I'm Changing The World To) My Love Song of You (The Louvin Brothers)(1
TTITLE0=951)
TTITLE1=Too Old To Cut The Mustard (The Carlisles) (1951)
TTITLE2=I Forgot More Than You'll Ever Know (The Davis Sisters)(1952)
TTITLE3=Goodbye Blues (The Beasley Singers)(1952)
TTITLE4=No Help Wanted (The Carlisles)(1952)
TTITLE5=You Ain't Seen Nothin' Yet (Curtis Gordon)(1952)
TTITLE6=Down South In New Orlean (Johnny And Jack)(1953)
TTITLE7=Leave That Liar Alone (The Carlisles)(1953)
TTITLE8=Knot Hole (The Carlisles)(1953)
TTITLE9=Crazy Rhythm (The Beaver Valley Sweethearts)(1953)
TTITLE10=Even Tho' (Webb Pierce)(1954)
TTITLE11=Is 'Zat You, Myrtle (The Carlisles)(1953)
TTITLE12=Goin' Steady With The Blues (George And Earl)(1955)
TTITLE13=Sweet Little Miss Blue Eyes (George And Earl)(1955)
TTITLE14=Honey Love (The Carlisles)(1953)
TTITLE15=Love Fever (Johnny And Jack)(1955)
TTITLE16=Can I (George And Earl)(1955)
TTITLE17=(If You) Got Anything Good (You Better Save It) (George And Earl)(1955
TTITLE17=)
TTITLE18=That Little Difference (The Carlisles)(1954)
TTITLE19=I Need A Little Help (The Carlisles)(1955)
TTITLE20=Pitfall (The Louvin Brothers)(1955)
TTITLE21=I Love Him Better Than You Do (Charline Arthur)(1956)
TTITLE22=Rock Love ('Nita, Rita And Ruby)(1955)
TTITLE23=Whose Baby Are You ('Nita, Rita And Ruby)(1955)
TTITLE24=Hi De Ank Tum ('Nita, Rita And Ruby)(1955)
TTITLE25=Let's Elope Baby (Janis Martin)(1956)
TTITLE26=Sky Princess (The Browns)(1956)
TTITLE27=Love Me, Love (Janis Martin)(1956)
TTITLE28=The Trot (The Browns)(1957)
TTITLE29=I Can't Leave (Don Gibson)(1957)
TTITLE30=Didn't Work Out, Did It (Don Gibson)(1959)
TTITLE31=Foggy River (Don Gibson)(1959)
TTITLE32=Sailor Man (Johnny And Jack)(1959)
EXTD=
EXTT0=
EXTT1=
EXTT2=
EXTT3=
EXTT4=
EXTT5=
EXTT6=
EXTT7=
EXTT8=
EXTT9=
EXTT10=
EXTT11=
EXTT12=
EXTT13=
EXTT14=
EXTT15=
EXTT16=
EXTT17=
EXTT18=
EXTT19=
EXTT20=
EXTT21=
EXTT22=
EXTT23=
EXTT24=
EXTT25=
EXTT26=
EXTT27=
EXTT28=
EXTT29=
EXTT30=
EXTT31=
EXTT32=
PLAYORDER=
